REM COMMENT "Generated by IcecastMetadataRecorder https://github.com/eshaz/icecast-metadata-js"
REM BR "16"
REM METAINT "64"
REM DATE "2020-07-29T21:16:11.222Z"
TITLE "isics-all"
FILE "isics-all.mp3" WAVE
  TRACK 1 AUDIO
    TITLE "2020-07-29T21:18:24.062Z TO:7 Polk County - Westcom Law Enforcement 4 FROM:1481"
    INDEX 01 02:12:63
  TRACK 2 AUDIO
    TITLE "2020-07-29T21:18:26.150Z TO:24605 Dallas County Law 1 FROM:UNKNOWN"
    INDEX 01 02:14:70
  TRACK 3 AUDIO
    TITLE "2020-07-29T21:18:28.238Z TO:7 Polk County - Westcom Law Enforcement 4 FROM:1377"
    INDEX 01 02:17:01
  TRACK 4 AUDIO
    TITLE "2020-07-29T21:18:35.294Z TO:7 Polk County - Westcom Law Enforcement 4 FROM:1481"
    INDEX 01 02:24:05
  TRACK 5 AUDIO
    TITLE "2020-07-29T21:18:37.382Z TO:59908 Warren County Law 1 FROM:9111050"
    INDEX 01 02:26:12
  TRACK 6 AUDIO
    TITLE "2020-07-29T21:18:40.838Z TO:59908 Warren County Law 1 FROM:9199991"
    INDEX 01 02:29:46
  TRACK 7 AUDIO
    TITLE "2020-07-29T21:18:42.926Z TO:7 Polk County - Westcom Law Enforcement 4 FROM:1377"
    INDEX 01 02:31:53
  TRACK 8 AUDIO
    TITLE "2020-07-29T21:18:49.262Z TO:24605 Dallas County Law 1 FROM:2559984"
    INDEX 01 02:38:03
  TRACK 9 AUDIO
    TITLE "2020-07-29T21:19:01.142Z TO:7 Polk County - Westcom Law Enforcement 4 FROM:1481"
    INDEX 01 02:49:69
  TRACK 10 AUDIO
    TITLE "END"
    INDEX 01 02:52:06